# xmcd
#
# Track frame offsets: 
#        150
#        16577
#        30488
#        41428
#        58259
#        67929
#        81702
#        101604
#        115526
#        134457
#
# Disc length: 1984 seconds
#
# Revision: 0
# Processed by: cddbd v1.5.2PL0 Copyright (c) Steve Scherf et al.
# Submitted via: ExactAudioCopy v0.95b4
#
DISCID=7b07be0a
DTITLE=John Maines Jr - Outlaw Runnin' Wild
DYEAR=2008
DGENRE=Country
TTITLE0=Outlaw Runnin' Wild
TTITLE1=Looking For An Angel
TTITLE2=Good As Gone
TTITLE3=I'm Over Her For Good
TTITLE4=I Can't Stand
TTITLE5=Drinking Whiskey, Chasing Girls and Raisin' Hell
TTITLE6=You Can Run But You Can't Hide
TTITLE7=I'd Never Drink Whiskey Again
TTITLE8=She Thinks I Don't Love Her Anymore
TTITLE9=That West Virginia Night
EXTD=
EXTT0=
EXTT1=
EXTT2=
EXTT3=
EXTT4=
EXTT5=
EXTT6=
EXTT7=
EXTT8=
EXTT9=
PLAYORDER=
